# Blender v2.91.2 OBJ File: ''
# www.blender.org
mtllib untitled.mtl
o defaultMaterial_defaultMaterial.001
v 0.057678 -0.035140 -0.002794
v 0.054321 -0.035140 -0.021833
v 0.054321 -0.006725 -0.021833
v 0.057678 -0.006725 -0.002794
v 0.044654 -0.035140 -0.038576
v 0.044654 -0.006725 -0.038576
v 0.029843 -0.035140 -0.051004
v 0.029843 -0.006725 -0.051004
v 0.011676 -0.035140 -0.057616
v 0.011676 -0.006725 -0.057616
v -0.007658 -0.035140 -0.057616
v -0.007658 -0.006725 -0.057616
v -0.025825 -0.035140 -0.051004
v -0.025825 -0.006725 -0.051004
v -0.040635 -0.035140 -0.038576
v -0.040635 -0.006725 -0.038576
v -0.050302 -0.035140 -0.021833
v -0.050302 -0.006725 -0.021833
v -0.053659 -0.035140 -0.002794
v -0.053659 -0.006725 -0.002794
v -0.050302 -0.035140 0.016246
v -0.050302 -0.006725 0.016246
v -0.040635 -0.035140 0.032989
v -0.040635 -0.006725 0.032989
v -0.025825 -0.035140 0.045416
v -0.025825 -0.006725 0.045416
v -0.007658 -0.035140 0.052029
v -0.007658 -0.006725 0.052029
v 0.011676 -0.035140 0.052029
v 0.011676 -0.006725 0.052029
v 0.029843 -0.035140 0.045416
v 0.029843 -0.006725 0.045416
v 0.044654 -0.035140 0.032989
v 0.044654 -0.006725 0.032989
v 0.054321 -0.035140 0.016246
v 0.054321 -0.006725 0.016246
v 0.051638 -0.036626 -0.020857
v 0.054823 -0.036626 -0.002794
v 0.040535 -0.036626 -0.002794
v 0.038212 -0.036626 -0.015971
v 0.051638 -0.036626 0.015269
v 0.038212 -0.036626 0.010383
v 0.042467 -0.036626 0.031154
v 0.031522 -0.036626 0.021970
v 0.028416 -0.036626 0.042945
v 0.021272 -0.036626 0.030571
v 0.011180 -0.036626 0.049217
v 0.008699 -0.036626 0.035147
v -0.007162 -0.036626 0.049217
v -0.004681 -0.036626 0.035147
v -0.024398 -0.036626 0.042945
v -0.017254 -0.036626 0.030571
v -0.038448 -0.036626 0.031154
v -0.027503 -0.036626 0.021970
v -0.047620 -0.036626 0.015269
v -0.034193 -0.036626 0.010383
v -0.050805 -0.036626 -0.002794
v -0.036517 -0.036626 -0.002794
v -0.047620 -0.036626 -0.020857
v -0.034193 -0.036626 -0.015971
v -0.038448 -0.036626 -0.036742
v -0.027503 -0.036626 -0.027557
v -0.024398 -0.036626 -0.048532
v -0.017254 -0.036626 -0.036158
v -0.007162 -0.036626 -0.054805
v -0.004681 -0.036626 -0.040734
v 0.011180 -0.036626 -0.054805
v 0.008699 -0.036626 -0.040734
v 0.028416 -0.036626 -0.048532
v 0.021272 -0.036626 -0.036158
v 0.042467 -0.036626 -0.036742
v 0.031522 -0.036626 -0.027557
v 0.054823 -0.005240 -0.002794
v 0.051638 -0.005240 -0.020857
v 0.038212 -0.005240 -0.015971
v 0.040535 -0.005240 -0.002794
v 0.042467 -0.005240 -0.036742
v 0.031522 -0.005240 -0.027557
v 0.028416 -0.005240 -0.048532
v 0.021272 -0.005240 -0.036158
v 0.011180 -0.005240 -0.054805
v 0.008699 -0.005240 -0.040734
v -0.007162 -0.005240 -0.054805
v -0.004681 -0.005240 -0.040734
v -0.024398 -0.005240 -0.048532
v -0.017254 -0.005240 -0.036158
v -0.038448 -0.005240 -0.036742
v -0.027503 -0.005240 -0.027557
v -0.047620 -0.005240 -0.020857
v -0.034193 -0.005240 -0.015971
v -0.050805 -0.005240 -0.002794
v -0.036517 -0.005240 -0.002794
v -0.047620 -0.005240 0.015269
v -0.034193 -0.005240 0.010383
v -0.038448 -0.005240 0.031154
v -0.027503 -0.005240 0.021970
v -0.024398 -0.005240 0.042945
v -0.017254 -0.005240 0.030571
v -0.007162 -0.005240 0.049217
v -0.004681 -0.005240 0.035147
v 0.011180 -0.005240 0.049217
v 0.008699 -0.005240 0.035147
v 0.028416 -0.005240 0.042945
v 0.021272 -0.005240 0.030571
v 0.042467 -0.005240 0.031154
v 0.031522 -0.005240 0.021970
v 0.051638 -0.005240 0.015269
v 0.038212 -0.005240 0.010383
v -0.004185 -0.006725 -0.037923
v -0.004185 -0.035140 -0.037923
v 0.008203 -0.035140 -0.037923
v 0.008203 -0.006725 -0.037923
v 0.019845 -0.006725 -0.033686
v 0.019845 -0.035140 -0.033686
v 0.029335 -0.035140 -0.025723
v 0.029335 -0.006725 -0.025723
v 0.035529 -0.006725 -0.014994
v 0.035529 -0.035140 -0.014994
v 0.037681 -0.035140 -0.002794
v 0.037681 -0.006725 -0.002794
v 0.035529 -0.006725 0.009406
v 0.035529 -0.035140 0.009406
v 0.029335 -0.035140 0.020135
v 0.029335 -0.006725 0.020135
v 0.019845 -0.006725 0.028098
v 0.019845 -0.035140 0.028098
v 0.008203 -0.035140 0.032336
v 0.008203 -0.006725 0.032336
v -0.004185 -0.006725 0.032336
v -0.004185 -0.035140 0.032336
v -0.015826 -0.035140 0.028098
v -0.015826 -0.006725 0.028098
v -0.025317 -0.006725 0.020135
v -0.025317 -0.035140 0.020135
v -0.031510 -0.035140 0.009406
v -0.031510 -0.006725 0.009406
v -0.033662 -0.006725 -0.002794
v -0.033662 -0.035140 -0.002794
v -0.031510 -0.035140 -0.014994
v -0.031510 -0.006725 -0.014994
v -0.025317 -0.006725 -0.025723
v -0.025317 -0.035140 -0.025723
v -0.015826 -0.035140 -0.033686
v -0.015826 -0.006725 -0.033686
v 0.054321 -0.035140 -0.021833
v 0.057678 -0.035140 -0.002794
v 0.044654 -0.035140 -0.038576
v 0.029843 -0.035140 -0.051004
v 0.011676 -0.035140 -0.057616
v -0.007658 -0.035140 -0.057616
v -0.025825 -0.035140 -0.051004
v -0.040635 -0.035140 -0.038576
v -0.050302 -0.035140 -0.021833
v -0.053659 -0.035140 -0.002794
v -0.050302 -0.035140 0.016246
v -0.040635 -0.035140 0.032989
v -0.025825 -0.035140 0.045416
v -0.007658 -0.035140 0.052029
v 0.011676 -0.035140 0.052029
v 0.029843 -0.035140 0.045416
v 0.044654 -0.035140 0.032989
v 0.054321 -0.035140 0.016246
v 0.057678 -0.006725 -0.002794
v 0.054321 -0.006725 -0.021833
v 0.044654 -0.006725 -0.038576
v 0.029843 -0.006725 -0.051004
v 0.011676 -0.006725 -0.057616
v -0.007658 -0.006725 -0.057616
v -0.025825 -0.006725 -0.051004
v -0.040635 -0.006725 -0.038576
v -0.050302 -0.006725 -0.021833
v -0.053659 -0.006725 -0.002794
v -0.050302 -0.006725 0.016246
v -0.040635 -0.006725 0.032989
v -0.025825 -0.006725 0.045416
v -0.007658 -0.006725 0.052029
v 0.011676 -0.006725 0.052029
v 0.029843 -0.006725 0.045416
v 0.044654 -0.006725 0.032989
v 0.054321 -0.006725 0.016246
v 0.037681 -0.035140 -0.002794
v 0.035529 -0.035140 -0.014994
v 0.035529 -0.035140 0.009406
v 0.029335 -0.035140 0.020135
v 0.019845 -0.035140 0.028098
v 0.008203 -0.035140 0.032336
v -0.004185 -0.035140 0.032336
v -0.015826 -0.035140 0.028098
v -0.025317 -0.035140 0.020135
v -0.031510 -0.035140 0.009406
v -0.033662 -0.035140 -0.002794
v -0.031510 -0.035140 -0.014994
v -0.025317 -0.035140 -0.025723
v -0.015826 -0.035140 -0.033686
v -0.004185 -0.035140 -0.037923
v 0.008203 -0.035140 -0.037923
v 0.019845 -0.035140 -0.033686
v 0.029335 -0.035140 -0.025723
v 0.035529 -0.006725 -0.014994
v 0.037681 -0.006725 -0.002794
v 0.029335 -0.006725 -0.025723
v 0.019845 -0.006725 -0.033686
v 0.008203 -0.006725 -0.037923
v -0.004185 -0.006725 -0.037923
v -0.015826 -0.006725 -0.033686
v -0.025317 -0.006725 -0.025723
v -0.031510 -0.006725 -0.014994
v -0.033662 -0.006725 -0.002794
v -0.031510 -0.006725 0.009406
v -0.025317 -0.006725 0.020135
v -0.015826 -0.006725 0.028098
v -0.004185 -0.006725 0.032336
v 0.008203 -0.006725 0.032336
v 0.019845 -0.006725 0.028098
v 0.029335 -0.006725 0.020135
v 0.035529 -0.006725 0.009406
vt 0.668400 0.169700
vt 0.678100 0.225900
vt 0.737000 0.204600
vt 0.731000 0.169700
vt 0.706300 0.275300
vt 0.754500 0.235300
vt 0.749700 0.312200
vt 0.781200 0.258100
vt 0.803100 0.331900
vt 0.814100 0.270300
vt 0.860000 0.331900
vt 0.849100 0.270300
vt 0.913400 0.312200
vt 0.881900 0.258100
vt 0.956800 0.275300
vt 0.908700 0.235300
vt 0.985000 0.225900
vt 0.926100 0.204600
vt 0.994700 0.169700
vt 0.932100 0.169700
vt 0.985000 0.113600
vt 0.926100 0.134900
vt 0.956800 0.064200
vt 0.908700 0.104200
vt 0.913400 0.027300
vt 0.881900 0.081400
vt 0.860000 0.007600
vt 0.849100 0.069200
vt 0.803100 0.007600
vt 0.814100 0.069200
vt 0.749700 0.027300
vt 0.781200 0.081400
vt 0.706300 0.064200
vt 0.754500 0.104200
vt 0.678100 0.113600
vt 0.737000 0.134900
vt 0.468900 0.236600
vt 0.465900 0.219400
vt 0.452100 0.219400
vt 0.455900 0.241200
vt 0.468900 0.202200
vt 0.455900 0.197500
vt 0.477400 0.186900
vt 0.466800 0.178200
vt 0.490600 0.175500
vt 0.483700 0.163800
vt 0.506900 0.169400
vt 0.504500 0.156000
vt 0.524300 0.169400
vt 0.526700 0.156000
vt 0.540600 0.175500
vt 0.547500 0.163800
vt 0.553800 0.186900
vt 0.564300 0.178200
vt 0.562300 0.202200
vt 0.575200 0.197500
vt 0.565300 0.219400
vt 0.579000 0.219400
vt 0.562300 0.236600
vt 0.575200 0.241200
vt 0.553800 0.251800
vt 0.564300 0.260500
vt 0.540600 0.263200
vt 0.547500 0.275000
vt 0.524300 0.269400
vt 0.526700 0.282700
vt 0.506900 0.269400
vt 0.504500 0.282700
vt 0.490600 0.263200
vt 0.483700 0.275000
vt 0.477400 0.251800
vt 0.466800 0.260500
vt 0.731500 0.169700
vt 0.737500 0.204400
vt 0.749600 0.200000
vt 0.744400 0.169700
vt 0.754900 0.234900
vt 0.764700 0.226600
vt 0.781500 0.257600
vt 0.787900 0.246400
vt 0.814200 0.269700
vt 0.816400 0.256900
vt 0.849000 0.269700
vt 0.846700 0.256900
vt 0.881600 0.257600
vt 0.875200 0.246400
vt 0.908200 0.234900
vt 0.898400 0.226600
vt 0.925600 0.204400
vt 0.913500 0.200000
vt 0.931600 0.169700
vt 0.918800 0.169700
vt 0.925600 0.135100
vt 0.913500 0.139500
vt 0.908200 0.104600
vt 0.898400 0.112900
vt 0.881600 0.081900
vt 0.875200 0.093100
vt 0.849000 0.069800
vt 0.846700 0.082600
vt 0.814200 0.069800
vt 0.816400 0.082600
vt 0.781500 0.081900
vt 0.787900 0.093100
vt 0.754900 0.104600
vt 0.764700 0.112900
vt 0.737500 0.135100
vt 0.749600 0.139500
vt 0.846700 0.256400
vt 0.835700 0.194700
vt 0.827400 0.194700
vt 0.816500 0.256400
vt 0.788100 0.245900
vt 0.819600 0.191800
vt 0.813200 0.186100
vt 0.765100 0.226200
vt 0.750100 0.199800
vt 0.809000 0.178500
vt 0.807500 0.169700
vt 0.744900 0.169700
vt 0.750100 0.139700
vt 0.809000 0.161000
vt 0.813200 0.153400
vt 0.765100 0.113300
vt 0.788100 0.093600
vt 0.819600 0.147700
vt 0.827400 0.144800
vt 0.816500 0.083100
vt 0.846700 0.083100
vt 0.835700 0.144800
vt 0.843500 0.147700
vt 0.875000 0.093600
vt 0.898000 0.113300
vt 0.849900 0.153400
vt 0.854200 0.161000
vt 0.913000 0.139700
vt 0.918200 0.169700
vt 0.855600 0.169700
vt 0.854200 0.178500
vt 0.913000 0.199800
vt 0.898000 0.226200
vt 0.849900 0.186100
vt 0.843500 0.191800
vt 0.875000 0.245900
vt 0.472200 0.235400
vt 0.469300 0.219400
vt 0.480000 0.249700
vt 0.492300 0.260300
vt 0.507500 0.266000
vt 0.523700 0.266000
vt 0.538800 0.260300
vt 0.551100 0.249700
vt 0.558900 0.235400
vt 0.561800 0.219400
vt 0.558900 0.203300
vt 0.551100 0.189100
vt 0.538800 0.178500
vt 0.523700 0.172700
vt 0.507500 0.172700
vt 0.492300 0.178500
vt 0.480000 0.189100
vt 0.472200 0.203300
vt 0.731000 0.169700
vt 0.737000 0.204600
vt 0.754500 0.235300
vt 0.781200 0.258100
vt 0.814100 0.270300
vt 0.849100 0.270300
vt 0.881900 0.258100
vt 0.908700 0.235300
vt 0.926100 0.204600
vt 0.932100 0.169700
vt 0.926100 0.134900
vt 0.908700 0.104200
vt 0.881900 0.081400
vt 0.849100 0.069200
vt 0.814100 0.069200
vt 0.781200 0.081400
vt 0.754500 0.104200
vt 0.737000 0.134900
vt 0.448700 0.219400
vt 0.452600 0.242400
vt 0.452600 0.196400
vt 0.464200 0.176000
vt 0.481900 0.160800
vt 0.503900 0.152700
vt 0.527300 0.152700
vt 0.549200 0.160800
vt 0.567000 0.176000
vt 0.578500 0.196400
vt 0.582500 0.219400
vt 0.578500 0.242400
vt 0.567000 0.262700
vt 0.549200 0.277900
vt 0.527300 0.286100
vt 0.503900 0.286100
vt 0.481900 0.277900
vt 0.464200 0.262700
vt 0.750100 0.199800
vt 0.744900 0.169700
vt 0.765100 0.226200
vt 0.788100 0.245900
vt 0.816500 0.256400
vt 0.846700 0.256400
vt 0.875000 0.245900
vt 0.898000 0.226200
vt 0.913000 0.199800
vt 0.918200 0.169700
vt 0.913000 0.139700
vt 0.898000 0.113300
vt 0.875000 0.093600
vt 0.846700 0.083100
vt 0.816500 0.083100
vt 0.788100 0.093600
vt 0.765100 0.113300
vt 0.750100 0.139700
vn 1.0000 0.0000 -0.0000
vn 0.9397 0.0000 -0.3420
vn 0.7660 0.0000 -0.6428
vn 0.5000 0.0000 -0.8660
vn 0.1736 0.0000 -0.9848
vn -0.1736 0.0000 -0.9848
vn -0.5000 0.0000 -0.8660
vn -0.7661 0.0000 -0.6428
vn -0.9397 0.0000 -0.3420
vn -1.0000 0.0000 -0.0000
vn -0.9397 0.0000 0.3420
vn -0.7660 0.0000 0.6428
vn -0.5000 0.0000 0.8660
vn -0.1737 0.0000 0.9848
vn 0.1737 0.0000 0.9848
vn 0.5000 0.0000 0.8660
vn 0.7660 0.0000 0.6428
vn 0.9397 0.0000 0.3420
vn 0.5027 -0.8449 -0.1830
vn 0.5349 -0.8449 0.0000
vn -0.4519 -0.8921 -0.0000
vn -0.4247 -0.8920 0.1545
vn 0.5026 -0.8449 0.1833
vn -0.4247 -0.8920 -0.1546
vn 0.4098 -0.8449 0.3439
vn -0.3462 -0.8921 -0.2905
vn 0.2675 -0.8449 0.4633
vn -0.2260 -0.8920 -0.3914
vn 0.0929 -0.8449 0.5268
vn -0.0785 -0.8921 -0.4450
vn -0.0930 -0.8449 0.5268
vn 0.0785 -0.8921 -0.4450
vn -0.2676 -0.8449 0.4633
vn 0.2260 -0.8921 -0.3914
vn -0.4096 -0.8449 0.3441
vn 0.3462 -0.8921 -0.2905
vn -0.5027 -0.8449 0.1829
vn 0.4247 -0.8920 -0.1546
vn -0.5349 -0.8449 -0.0000
vn 0.4519 -0.8921 -0.0000
vn -0.5027 -0.8449 -0.1830
vn 0.4247 -0.8920 0.1546
vn -0.4098 -0.8449 -0.3439
vn 0.3462 -0.8921 0.2905
vn -0.2677 -0.8449 -0.4632
vn 0.2260 -0.8921 0.3914
vn -0.0929 -0.8449 -0.5268
vn 0.0785 -0.8921 0.4450
vn 0.0929 -0.8449 -0.5268
vn -0.0785 -0.8920 0.4451
vn 0.2676 -0.8449 -0.4633
vn -0.2260 -0.8920 0.3914
vn 0.4098 -0.8449 -0.3438
vn -0.3462 -0.8921 0.2905
vn 0.5349 0.8449 0.0000
vn 0.5027 0.8449 -0.1830
vn -0.4247 0.8920 0.1546
vn -0.4519 0.8921 0.0000
vn 0.4098 0.8449 -0.3439
vn -0.3462 0.8921 0.2905
vn 0.2672 0.8449 -0.4635
vn -0.2260 0.8920 0.3914
vn 0.0929 0.8449 -0.5268
vn -0.0785 0.8921 0.4450
vn -0.0929 0.8449 -0.5268
vn 0.0785 0.8921 0.4450
vn -0.2677 0.8449 -0.4632
vn 0.2260 0.8921 0.3914
vn -0.4100 0.8449 -0.3437
vn 0.3462 0.8921 0.2905
vn -0.5027 0.8449 -0.1829
vn 0.4247 0.8920 0.1546
vn -0.5349 0.8449 0.0001
vn 0.4519 0.8921 0.0000
vn -0.5027 0.8449 0.1830
vn 0.4247 0.8920 -0.1546
vn -0.4098 0.8449 0.3439
vn 0.3462 0.8921 -0.2905
vn -0.2678 0.8449 0.4631
vn 0.2260 0.8921 -0.3914
vn -0.0929 0.8449 0.5268
vn 0.0785 0.8921 -0.4450
vn 0.0929 0.8449 0.5268
vn -0.0785 0.8921 -0.4450
vn 0.2676 0.8449 0.4632
vn -0.2260 0.8920 -0.3914
vn 0.4096 0.8449 0.3441
vn -0.3462 0.8921 -0.2905
vn 0.5027 0.8449 0.1829
vn -0.4247 0.8920 -0.1546
vn 0.1736 0.0000 0.9848
vn -0.1736 0.0000 0.9848
vn -0.7661 0.0000 0.6428
vn -0.1737 0.0000 -0.9848
vn 0.1737 0.0000 -0.9848
vn 0.7661 0.0000 -0.6428
vn 0.7661 0.0000 0.6428
vn 0.8090 -0.5087 -0.2945
vn 0.8610 -0.5087 0.0000
vn 0.6595 -0.5087 -0.5534
vn 0.4305 -0.5087 -0.7456
vn 0.1495 -0.5086 -0.8479
vn -0.1495 -0.5086 -0.8479
vn -0.4305 -0.5087 -0.7456
vn -0.6595 -0.5087 -0.5534
vn -0.8091 -0.5086 -0.2945
vn -0.8610 -0.5086 0.0000
vn -0.8091 -0.5086 0.2945
vn -0.6595 -0.5086 0.5534
vn -0.4305 -0.5086 0.7456
vn -0.1495 -0.5086 0.8479
vn 0.1495 -0.5086 0.8479
vn 0.4305 -0.5086 0.7456
vn 0.6595 -0.5087 0.5534
vn 0.8091 -0.5086 0.2945
vn 0.8610 0.5087 0.0000
vn 0.8090 0.5087 -0.2945
vn 0.6595 0.5087 -0.5534
vn 0.4305 0.5087 -0.7456
vn 0.1495 0.5086 -0.8479
vn -0.1495 0.5086 -0.8479
vn -0.4305 0.5087 -0.7456
vn -0.6595 0.5086 -0.5534
vn -0.8091 0.5086 -0.2945
vn -0.8610 0.5087 0.0000
vn -0.8091 0.5086 0.2945
vn -0.6595 0.5086 0.5535
vn -0.4305 0.5086 0.7456
vn -0.1495 0.5086 0.8479
vn 0.1495 0.5086 0.8479
vn 0.4305 0.5086 0.7456
vn 0.6595 0.5087 0.5534
vn 0.8090 0.5087 0.2945
vn -0.4305 -0.5086 -0.7456
vn 0.4305 -0.5086 -0.7456
vn 0.8091 -0.5086 -0.2945
vn 0.8610 -0.5086 0.0000
vn 0.6595 -0.5086 0.5535
vn 0.4305 -0.5087 0.7456
vn -0.6596 -0.5086 0.5534
vn -0.8610 0.5086 0.0000
vn -0.6595 0.5086 0.5534
vn 0.4305 0.5087 0.7456
vn 0.6596 0.5086 0.5534
vn 0.8090 0.5086 0.2945
vn 0.4305 0.5086 -0.7456
vn -0.4305 0.5086 -0.7456
usemtl default.001
s 1
f 1/1/1 2/2/2 3/3/2
f 3/3/2 4/4/1 1/1/1
f 2/2/2 5/5/3 6/6/3
f 6/6/3 3/3/2 2/2/2
f 5/5/3 7/7/4 8/8/4
f 8/8/4 6/6/3 5/5/3
f 7/7/4 9/9/5 10/10/5
f 10/10/5 8/8/4 7/7/4
f 9/9/5 11/11/6 12/12/6
f 12/12/6 10/10/5 9/9/5
f 11/11/6 13/13/7 14/14/7
f 14/14/7 12/12/6 11/11/6
f 13/13/7 15/15/8 16/16/8
f 16/16/8 14/14/7 13/13/7
f 15/15/8 17/17/9 18/18/9
f 18/18/9 16/16/8 15/15/8
f 17/17/9 19/19/10 20/20/10
f 20/20/10 18/18/9 17/17/9
f 19/19/10 21/21/11 22/22/11
f 22/22/11 20/20/10 19/19/10
f 21/21/11 23/23/12 24/24/12
f 24/24/12 22/22/11 21/21/11
f 23/23/12 25/25/13 26/26/13
f 26/26/13 24/24/12 23/23/12
f 25/25/13 27/27/14 28/28/14
f 28/28/14 26/26/13 25/25/13
f 27/27/14 29/29/15 30/30/15
f 30/30/15 28/28/14 27/27/14
f 29/29/15 31/31/16 32/32/16
f 32/32/16 30/30/15 29/29/15
f 31/31/16 33/33/17 34/34/17
f 34/34/17 32/32/16 31/31/16
f 33/33/17 35/35/18 36/36/18
f 36/36/18 34/34/17 33/33/17
f 35/35/18 1/1/1 4/4/1
f 4/4/1 36/36/18 35/35/18
f 37/37/19 38/38/20 39/39/21
f 39/39/21 40/40/22 37/37/19
f 38/38/20 41/41/23 42/42/24
f 42/42/24 39/39/21 38/38/20
f 41/41/23 43/43/25 44/44/26
f 44/44/26 42/42/24 41/41/23
f 43/43/25 45/45/27 46/46/28
f 46/46/28 44/44/26 43/43/25
f 45/45/27 47/47/29 48/48/30
f 48/48/30 46/46/28 45/45/27
f 47/47/29 49/49/31 50/50/32
f 50/50/32 48/48/30 47/47/29
f 49/49/31 51/51/33 52/52/34
f 52/52/34 50/50/32 49/49/31
f 51/51/33 53/53/35 54/54/36
f 54/54/36 52/52/34 51/51/33
f 53/53/35 55/55/37 56/56/38
f 56/56/38 54/54/36 53/53/35
f 55/55/37 57/57/39 58/58/40
f 58/58/40 56/56/38 55/55/37
f 57/57/39 59/59/41 60/60/42
f 60/60/42 58/58/40 57/57/39
f 59/59/41 61/61/43 62/62/44
f 62/62/44 60/60/42 59/59/41
f 61/61/43 63/63/45 64/64/46
f 64/64/46 62/62/44 61/61/43
f 63/63/45 65/65/47 66/66/48
f 66/66/48 64/64/46 63/63/45
f 65/65/47 67/67/49 68/68/50
f 68/68/50 66/66/48 65/65/47
f 67/67/49 69/69/51 70/70/52
f 70/70/52 68/68/50 67/67/49
f 69/69/51 71/71/53 72/72/54
f 72/72/54 70/70/52 69/69/51
f 71/71/53 37/37/19 40/40/22
f 40/40/22 72/72/54 71/71/53
f 73/73/55 74/74/56 75/75/57
f 75/75/57 76/76/58 73/73/55
f 74/74/56 77/77/59 78/78/60
f 78/78/60 75/75/57 74/74/56
f 77/77/59 79/79/61 80/80/62
f 80/80/62 78/78/60 77/77/59
f 79/79/61 81/81/63 82/82/64
f 82/82/64 80/80/62 79/79/61
f 81/81/63 83/83/65 84/84/66
f 84/84/66 82/82/64 81/81/63
f 83/83/65 85/85/67 86/86/68
f 86/86/68 84/84/66 83/83/65
f 85/85/67 87/87/69 88/88/70
f 88/88/70 86/86/68 85/85/67
f 87/87/69 89/89/71 90/90/72
f 90/90/72 88/88/70 87/87/69
f 89/89/71 91/91/73 92/92/74
f 92/92/74 90/90/72 89/89/71
f 91/91/73 93/93/75 94/94/76
f 94/94/76 92/92/74 91/91/73
f 93/93/75 95/95/77 96/96/78
f 96/96/78 94/94/76 93/93/75
f 95/95/77 97/97/79 98/98/80
f 98/98/80 96/96/78 95/95/77
f 97/97/79 99/99/81 100/100/82
f 100/100/82 98/98/80 97/97/79
f 99/99/81 101/101/83 102/102/84
f 102/102/84 100/100/82 99/99/81
f 101/101/83 103/103/85 104/104/86
f 104/104/86 102/102/84 101/101/83
f 103/103/85 105/105/87 106/106/88
f 106/106/88 104/104/86 103/103/85
f 105/105/87 107/107/89 108/108/90
f 108/108/90 106/106/88 105/105/87
f 107/107/89 73/73/55 76/76/58
f 76/76/58 108/108/90 107/107/89
f 109/109/91 110/110/91 111/111/92
f 111/111/92 112/112/92 109/109/91
f 113/113/13 114/114/13 115/115/93
f 115/115/93 116/116/93 113/113/13
f 117/117/11 118/118/11 119/119/10
f 119/119/10 120/120/10 117/117/11
f 121/121/9 122/122/9 123/123/8
f 123/123/8 124/124/8 121/121/9
f 125/125/7 126/126/7 127/127/94
f 127/127/94 128/128/94 125/125/7
f 129/129/95 130/130/95 131/131/4
f 131/131/4 132/132/4 129/129/95
f 133/133/96 134/134/96 135/135/2
f 135/135/2 136/136/2 133/133/96
f 137/137/1 138/138/1 139/139/18
f 139/139/18 140/140/18 137/137/1
f 141/141/97 142/142/97 143/143/16
f 143/143/16 144/144/16 141/141/97
f 121/121/9 120/120/10 119/119/10
f 119/119/10 122/122/9 121/121/9
f 125/125/7 124/124/8 123/123/8
f 123/123/8 126/126/7 125/125/7
f 129/129/95 128/128/94 127/127/94
f 127/127/94 130/130/95 129/129/95
f 133/133/96 132/132/4 131/131/4
f 131/131/4 134/134/96 133/133/96
f 137/137/1 136/136/2 135/135/2
f 135/135/2 138/138/1 137/137/1
f 141/141/97 140/140/18 139/139/18
f 139/139/18 142/142/97 141/141/97
f 109/109/91 144/144/16 143/143/16
f 143/143/16 110/110/91 109/109/91
f 113/113/13 112/112/92 111/111/92
f 111/111/92 114/114/13 113/113/13
f 117/117/11 116/116/93 115/115/93
f 115/115/93 118/118/11 117/117/11
f 37/37/19 145/145/98 146/146/99
f 146/146/99 38/38/20 37/37/19
f 71/71/53 147/147/100 145/145/98
f 145/145/98 37/37/19 71/71/53
f 69/69/51 148/148/101 147/147/100
f 147/147/100 71/71/53 69/69/51
f 67/67/49 149/149/102 148/148/101
f 148/148/101 69/69/51 67/67/49
f 65/65/47 150/150/103 149/149/102
f 149/149/102 67/67/49 65/65/47
f 63/63/45 151/151/104 150/150/103
f 150/150/103 65/65/47 63/63/45
f 61/61/43 152/152/105 151/151/104
f 151/151/104 63/63/45 61/61/43
f 59/59/41 153/153/106 152/152/105
f 152/152/105 61/61/43 59/59/41
f 57/57/39 154/154/107 153/153/106
f 153/153/106 59/59/41 57/57/39
f 55/55/37 155/155/108 154/154/107
f 154/154/107 57/57/39 55/55/37
f 53/53/35 156/156/109 155/155/108
f 155/155/108 55/55/37 53/53/35
f 51/51/33 157/157/110 156/156/109
f 156/156/109 53/53/35 51/51/33
f 49/49/31 158/158/111 157/157/110
f 157/157/110 51/51/33 49/49/31
f 47/47/29 159/159/112 158/158/111
f 158/158/111 49/49/31 47/47/29
f 45/45/27 160/160/113 159/159/112
f 159/159/112 47/47/29 45/45/27
f 43/43/25 161/161/114 160/160/113
f 160/160/113 45/45/27 43/43/25
f 41/41/23 162/162/115 161/161/114
f 161/161/114 43/43/25 41/41/23
f 38/38/20 146/146/99 162/162/115
f 162/162/115 41/41/23 38/38/20
f 73/73/55 163/163/116 164/164/117
f 164/164/117 74/74/56 73/73/55
f 74/74/56 164/164/117 165/165/118
f 165/165/118 77/77/59 74/74/56
f 77/77/59 165/165/118 166/166/119
f 166/166/119 79/79/61 77/77/59
f 79/79/61 166/166/119 167/167/120
f 167/167/120 81/81/63 79/79/61
f 81/81/63 167/167/120 168/168/121
f 168/168/121 83/83/65 81/81/63
f 83/83/65 168/168/121 169/169/122
f 169/169/122 85/85/67 83/83/65
f 85/85/67 169/169/122 170/170/123
f 170/170/123 87/87/69 85/85/67
f 87/87/69 170/170/123 171/171/124
f 171/171/124 89/89/71 87/87/69
f 89/89/71 171/171/124 172/172/125
f 172/172/125 91/91/73 89/89/71
f 91/91/73 172/172/125 173/173/126
f 173/173/126 93/93/75 91/91/73
f 93/93/75 173/173/126 174/174/127
f 174/174/127 95/95/77 93/93/75
f 95/95/77 174/174/127 175/175/128
f 175/175/128 97/97/79 95/95/77
f 97/97/79 175/175/128 176/176/129
f 176/176/129 99/99/81 97/97/79
f 99/99/81 176/176/129 177/177/130
f 177/177/130 101/101/83 99/99/81
f 101/101/83 177/177/130 178/178/131
f 178/178/131 103/103/85 101/101/83
f 103/103/85 178/178/131 179/179/132
f 179/179/132 105/105/87 103/103/85
f 105/105/87 179/179/132 180/180/133
f 180/180/133 107/107/89 105/105/87
f 107/107/89 180/180/133 163/163/116
f 163/163/116 73/73/55 107/107/89
f 39/39/21 181/181/107 182/182/108
f 182/182/108 40/40/22 39/39/21
f 42/42/24 183/183/106 181/181/107
f 181/181/107 39/39/21 42/42/24
f 44/44/26 184/184/105 183/183/106
f 183/183/106 42/42/24 44/44/26
f 46/46/28 185/185/134 184/184/105
f 184/184/105 44/44/26 46/46/28
f 48/48/30 186/186/103 185/185/134
f 185/185/134 46/46/28 48/48/30
f 50/50/32 187/187/102 186/186/103
f 186/186/103 48/48/30 50/50/32
f 52/52/34 188/188/135 187/187/102
f 187/187/102 50/50/32 52/52/34
f 54/54/36 189/189/100 188/188/135
f 188/188/135 52/52/34 54/54/36
f 56/56/38 190/190/136 189/189/100
f 189/189/100 54/54/36 56/56/38
f 58/58/40 191/191/137 190/190/136
f 190/190/136 56/56/38 58/58/40
f 60/60/42 192/192/115 191/191/137
f 191/191/137 58/58/40 60/60/42
f 62/62/44 193/193/138 192/192/115
f 192/192/115 60/60/42 62/62/44
f 64/64/46 194/194/139 193/193/138
f 193/193/138 62/62/44 64/64/46
f 66/66/48 195/195/112 194/194/139
f 194/194/139 64/64/46 66/66/48
f 68/68/50 196/196/111 195/195/112
f 195/195/112 66/66/48 68/68/50
f 70/70/52 197/197/110 196/196/111
f 196/196/111 68/68/50 70/70/52
f 72/72/54 198/198/140 197/197/110
f 197/197/110 70/70/52 72/72/54
f 40/40/22 182/182/108 198/198/140
f 198/198/140 72/72/54 40/40/22
f 75/75/57 199/199/126 200/200/141
f 200/200/141 76/76/58 75/75/57
f 78/78/60 201/201/142 199/199/126
f 199/199/126 75/75/57 78/78/60
f 80/80/62 202/202/128 201/201/142
f 201/201/142 78/78/60 80/80/62
f 82/82/64 203/203/129 202/202/128
f 202/202/128 80/80/62 82/82/64
f 84/84/66 204/204/130 203/203/129
f 203/203/129 82/82/64 84/84/66
f 86/86/68 205/205/143 204/204/130
f 204/204/130 84/84/66 86/86/68
f 88/88/70 206/206/144 205/205/143
f 205/205/143 86/86/68 88/88/70
f 90/90/72 207/207/145 206/206/144
f 206/206/144 88/88/70 90/90/72
f 92/92/74 208/208/116 207/207/145
f 207/207/145 90/90/72 92/92/74
f 94/94/76 209/209/117 208/208/116
f 208/208/116 92/92/74 94/94/76
f 96/96/78 210/210/118 209/209/117
f 209/209/117 94/94/76 96/96/78
f 98/98/80 211/211/146 210/210/118
f 210/210/118 96/96/78 98/98/80
f 100/100/82 212/212/120 211/211/146
f 211/211/146 98/98/80 100/100/82
f 102/102/84 213/213/121 212/212/120
f 212/212/120 100/100/82 102/102/84
f 104/104/86 214/214/147 213/213/121
f 213/213/121 102/102/84 104/104/86
f 106/106/88 215/215/123 214/214/147
f 214/214/147 104/104/86 106/106/88
f 108/108/90 216/216/124 215/215/123
f 215/215/123 106/106/88 108/108/90
f 76/76/58 200/200/141 216/216/124
f 216/216/124 108/108/90 76/76/58
